<svg height="512pt" viewBox="0 -21 512 512" width="512pt" xmlns="http://www.w3.org/2000/svg"><g fill="#607d8b"><path d="m112 32h-96c-8.832031 0-16-7.167969-16-16s7.167969-16 16-16h96c8.832031 0 16 7.167969 16 16s-7.167969 16-16 16zm0 0"/><path d="m64 90.667969c-8.832031 0-16-7.167969-16-16v-58.667969c0-8.832031 7.167969-16 16-16s16 7.167969 16 16v58.667969c0 8.832031-7.167969 16-16 16zm0 0"/><path d="m496 32h-96c-8.832031 0-16-7.167969-16-16s7.167969-16 16-16h96c8.832031 0 16 7.167969 16 16s-7.167969 16-16 16zm0 0"/><path d="m448 90.667969c-8.832031 0-16-7.167969-16-16v-58.667969c0-8.832031 7.167969-16 16-16s16 7.167969 16 16v58.667969c0 8.832031-7.167969 16-16 16zm0 0"/><path d="m256 282.667969c-8.832031 0-16-7.167969-16-16v-64c0-8.832031 7.167969-16 16-16s16 7.167969 16 16v64c0 8.832031-7.167969 16-16 16zm0 0"/></g><path d="m346.667969 293.332031h-16c-1.664063 0-3.265625-.789062-5.101563-3.15625l-19.242187-21.675781c-7.101563-7.957031-17.257813-12.5-27.902344-12.5h-44.84375c-10.667969 0-20.84375 4.566406-27.902344 12.523438l-20.097656 22.675781c-.980469 1.324219-2.582031 2.132812-4.246094 2.132812h-16c-20.585937 0-37.332031 16.746094-37.332031 37.335938v101.332031c0 20.585938 16.746094 37.332031 37.332031 37.332031h181.335938c20.585937 0 37.332031-16.746093 37.332031-37.332031v-101.332031c0-20.589844-16.746094-37.335938-37.332031-37.335938zm0 0" fill="#00bcd4"/><path d="m416 85.332031h-47.808594c-11.328125 0-21.867187-6.101562-27.519531-15.957031-17.085937-29.632812-48.9375-48.042969-84.671875-48.042969-34.238281 0-66.113281 18.410157-83.15625 48.042969-5.65625 9.835938-16.214844 15.957031-27.519531 15.957031h-47.832031c-5.886719 0-10.664063 4.78125-10.664063 10.667969v42.667969c0 5.886719 4.777344 10.664062 10.664063 10.664062h47.808593c11.308594 0 21.867188 6.125 27.519531 15.957031 17.066407 29.632813 48.941407 48.042969 84.671876 48.042969 34.21875 0 66.09375-18.410156 83.160156-48.0625 5.652344-9.835937 16.210937-15.9375 27.539062-15.9375h47.808594c5.886719 0 10.667969-4.777343 10.667969-10.664062v-42.667969c0-5.886719-4.78125-10.667969-10.667969-10.667969zm0 0" fill="#90a4ae"/><path d="m70.804688 58.667969h-10.667969c-20.585938 0-37.332031 16.746093-37.332031 37.332031v42.667969c0 20.585937 16.746093 37.332031 37.332031 37.332031h10.667969c20.585937 0 37.332031-16.746094 37.332031-37.332031v-42.667969c0-20.585938-16.746094-37.332031-37.332031-37.332031zm0 0" fill="#607d8b"/><path d="m454.804688 58.667969h-10.667969c-20.585938 0-37.332031 16.746093-37.332031 37.332031v42.667969c0 20.585937 16.746093 37.332031 37.332031 37.332031h10.667969c20.585937 0 37.332031-16.746094 37.332031-37.332031v-42.667969c0-20.585938-16.746094-37.332031-37.332031-37.332031zm0 0" fill="#607d8b"/><path d="m309.332031 373.332031c0 29.457031-23.875 53.335938-53.332031 53.335938s-53.332031-23.878907-53.332031-53.335938c0-29.453125 23.875-53.332031 53.332031-53.332031s53.332031 23.878906 53.332031 53.332031zm0 0" fill="#fafafa"/></svg>