<?xml version="1.0" encoding="iso-8859-1"?>
<!-- Generator: Adobe Illustrator 19.0.0, SVG Export Plug-In . SVG Version: 6.00 Build 0)  -->
<svg version="1.1" id="Layer_1" xmlns="http://www.w3.org/2000/svg" xmlns:xlink="http://www.w3.org/1999/xlink" x="0px" y="0px"
	 viewBox="0 0 512 512" style="enable-background:new 0 0 512 512;" xml:space="preserve">
<circle style="fill:#88C5CC;" cx="256" cy="256" r="256"/>
<path style="fill:#E6E6E6;" d="M352,424c0,6.628-5.372,12-12,12H172c-6.628,0-12-5.372-12-12V88c0-6.628,5.372-12,12-12h168
	c6.628,0,12,5.372,12,12V424z"/>
<rect x="163.812" y="112" style="fill:#395F73;" width="184" height="264"/>
<g>
	<rect x="167.812" y="116" style="fill:#406A80;" width="176" height="256"/>
	<circle style="fill:#406A80;" cx="255.812" cy="88" r="4"/>
	<path style="fill:#406A80;" d="M275.812,104h-40c-2.212,0-4-1.788-4-4s1.788-4,4-4h40c2.212,0,4,1.788,4,4S278.024,104,275.812,104
		z"/>
</g>
<g>
	<path style="fill:#E6E6E6;" d="M323.812,80h-16c-2.212,0-4-1.788-4-4s1.788-4,4-4h16c2.212,0,4,1.788,4,4S326.024,80,323.812,80z"
		/>
	<path style="fill:#E6E6E6;" d="M160,128c-2.212,0-4-1.788-4-4v-16c0-2.212,1.788-4,4-4s4,1.788,4,4v16
		C164,126.212,162.212,128,160,128z"/>
	<path style="fill:#E6E6E6;" d="M159.812,156c-2.212,0-4-1.788-4-4v-4c0-2.212,1.788-4,4-4s4,1.788,4,4v4
		C163.812,154.212,162.024,156,159.812,156z"/>
	<path style="fill:#E6E6E6;" d="M159.812,176c-2.212,0-4-1.788-4-4v-4c0-2.212,1.788-4,4-4s4,1.788,4,4v4
		C163.812,174.212,162.024,176,159.812,176z"/>
</g>
<rect x="204" y="204" style="fill:#FFFFFF;" width="104" height="88"/>
<rect x="212" y="212" style="fill:#C2E2F2;" width="88" height="72"/>
<circle style="fill:#FFDC80;" cx="228" cy="228" r="8"/>
<polygon style="fill:#198058;" points="212,284 240,248 255.812,269.572 276,240 300,284 "/>
<g>
	<polygon style="fill:#F5F5F5;" points="276,240 262.288,260.084 273.34,252.652 274.616,262.984 279.376,254.044 292.208,269.72 	
		"/>
	<polygon style="fill:#F5F5F5;" points="224.22,268.288 240,248 255.812,269.572 240.432,259.152 	"/>
</g>
<path style="fill:#406A80;" d="M256,392c-8.824,0-16,7.176-16,16s7.176,16,16,16s16-7.176,16-16S264.824,392,256,392z"/>
<g>
</g>
<g>
</g>
<g>
</g>
<g>
</g>
<g>
</g>
<g>
</g>
<g>
</g>
<g>
</g>
<g>
</g>
<g>
</g>
<g>
</g>
<g>
</g>
<g>
</g>
<g>
</g>
<g>
</g>
</svg>
